<svg width="24" height="24" viewBox="0 0 24 24" fill="none" xmlns="http://www.w3.org/2000/svg">
<path fill-rule="evenodd" clip-rule="evenodd" d="M15.4517 3.83316C15.335 3.80515 15.2017 3.80001 14.6745 3.80001H7.79995V6.40001C7.79995 6.69324 7.80057 6.86504 7.81092 6.99166C7.81615 7.05572 7.82264 7.08672 7.82541 7.09766C7.84345 7.1299 7.87006 7.15651 7.9023 7.17455C7.91324 7.17732 7.94424 7.18381 8.0083 7.18904C8.13492 7.19939 8.30672 7.20001 8.59995 7.20001H15.4C15.6932 7.20001 15.865 7.19939 15.9916 7.18904C16.0557 7.18381 16.0867 7.17732 16.0976 7.17455C16.1298 7.15651 16.1565 7.1299 16.1745 7.09766C16.1773 7.08672 16.1838 7.05572 16.189 6.99166C16.1993 6.86504 16.2 6.69324 16.2 6.40001V4.33218C15.9644 4.09935 15.883 4.0286 15.7985 3.97684C15.6912 3.91105 15.5741 3.86256 15.4517 3.83316ZM17.8 5.93138V6.42747C17.8 6.68386 17.8 6.92218 17.7837 7.12195C17.766 7.33818 17.7253 7.57866 17.6038 7.81719C17.4312 8.15588 17.1558 8.43125 16.8171 8.60382C16.5786 8.72536 16.3381 8.76606 16.1219 8.78373C15.9221 8.80005 15.6838 8.80003 15.4274 8.80001H8.57251C8.31611 8.80003 8.07778 8.80005 7.87801 8.78373C7.66178 8.76606 7.4213 8.72536 7.18277 8.60382C6.84408 8.43125 6.56871 8.15588 6.39614 7.81719C6.2746 7.57866 6.2339 7.33818 6.21623 7.12195C6.19991 6.92218 6.19993 6.68385 6.19995 6.42745C6.19995 6.41833 6.19995 6.40918 6.19995 6.40001V3.81924C6.09173 3.82419 5.99037 3.83041 5.8947 3.83822C5.44392 3.87506 5.19047 3.94334 5.00117 4.03979C4.58722 4.25072 4.25066 4.58727 4.03974 5.00123C3.94329 5.19052 3.875 5.44398 3.83817 5.89476C3.80057 6.35488 3.79995 6.94673 3.79995 7.80001V16.2C3.79995 17.0533 3.80057 17.6451 3.83817 18.1052C3.875 18.556 3.94329 18.8095 4.03974 18.9988C4.25066 19.4127 4.58722 19.7493 5.00117 19.9602C5.19047 20.0567 5.44392 20.125 5.8947 20.1618C5.99037 20.1696 6.09173 20.1758 6.19995 20.1808V14.5726C6.19993 14.3162 6.19991 14.0778 6.21623 13.8781C6.2339 13.6618 6.2746 13.4213 6.39614 13.1828C6.56871 12.8441 6.84408 12.5688 7.18277 12.3962C7.4213 12.2746 7.66178 12.2339 7.87801 12.2163C8.07779 12.2 8.31612 12.2 8.57252 12.2H15.4274C15.6838 12.2 15.9221 12.2 16.1219 12.2163C16.3381 12.2339 16.5786 12.2746 16.8171 12.3962C17.1558 12.5688 17.4312 12.8441 17.6038 13.1828C17.7253 13.4213 17.766 13.6618 17.7837 13.8781C17.8 14.0778 17.8 14.3161 17.8 14.5725V20.1808C17.9082 20.1758 18.0095 20.1696 18.1052 20.1618C18.556 20.125 18.8094 20.0567 18.9987 19.9602C19.4127 19.7493 19.7492 19.4127 19.9602 18.9988C20.0566 18.8095 20.1249 18.556 20.1617 18.1052C20.1993 17.6451 20.1999 17.0533 20.1999 16.2V9.32549C20.1999 8.79823 20.1948 8.66499 20.1668 8.5483C20.1374 8.42586 20.0889 8.3088 20.0231 8.20144C19.9604 8.09912 19.8698 8.00127 19.497 7.62844L17.8 5.93138ZM16.9533 21.7987C16.9687 21.7995 16.9843 21.8 17 21.8C17.0195 21.8 17.0388 21.7993 17.058 21.7979C17.5061 21.7943 17.896 21.7842 18.2355 21.7565C18.7852 21.7116 19.2727 21.6164 19.7251 21.3858C20.4401 21.0215 21.0215 20.4402 21.3858 19.7252C21.6163 19.2727 21.7115 18.7853 21.7564 18.2355C21.8 17.7026 21.8 17.0452 21.7999 16.234V9.32549C21.7999 9.30021 21.8 9.27522 21.8 9.25052C21.8003 8.83453 21.8005 8.49919 21.7226 8.17479C21.654 7.88909 21.5409 7.61596 21.3873 7.36544C21.213 7.08098 20.9757 6.84401 20.6814 6.55005C20.6639 6.53259 20.6463 6.51494 20.6284 6.49707L17.5029 3.37158C17.485 3.35371 17.4674 3.33604 17.4499 3.31857C17.156 3.02422 16.919 2.78694 16.6345 2.61262C16.384 2.4591 16.1109 2.34596 15.8252 2.27737C15.5008 2.19949 15.1654 2.19971 14.7494 2.19998C14.7247 2.19999 14.6997 2.20001 14.6745 2.20001H7.76595C7.51132 2.20001 7.27185 2.2 7.04663 2.20135C7.03118 2.20046 7.01562 2.20001 6.99995 2.20001C6.98043 2.20001 6.96106 2.20071 6.94189 2.20208C6.49385 2.20574 6.1039 2.2158 5.76441 2.24354C5.21468 2.28845 4.72723 2.38365 4.27479 2.61418C3.55977 2.9785 2.97845 3.55983 2.61413 4.27484C2.3836 4.72729 2.2884 5.21474 2.24348 5.76447C2.19994 6.29743 2.19994 6.95479 2.19995 7.76601V16.234C2.19994 17.0452 2.19994 17.7026 2.24348 18.2355C2.2884 18.7853 2.3836 19.2727 2.61413 19.7252C2.97845 20.4402 3.55977 21.0215 4.27479 21.3858C4.72723 21.6164 5.21468 21.7116 5.76441 21.7565C6.1039 21.7842 6.49385 21.7943 6.94189 21.7979C6.96107 21.7993 6.98043 21.8 6.99995 21.8C7.01562 21.8 7.03118 21.7995 7.04663 21.7987C7.27184 21.8 7.51131 21.8 7.76593 21.8H16.234C16.4886 21.8 16.7281 21.8 16.9533 21.7987ZM16.2 20.2V14.6C16.2 14.3068 16.1993 14.135 16.189 14.0083C16.1837 13.9443 16.1773 13.9133 16.1745 13.9023C16.1565 13.8701 16.1298 13.8435 16.0976 13.8255C16.0867 13.8227 16.0557 13.8162 15.9916 13.811C15.865 13.8006 15.6932 13.8 15.4 13.8H8.59995C8.30672 13.8 8.13492 13.8006 8.0083 13.811C7.94424 13.8162 7.91324 13.8227 7.9023 13.8255C7.87006 13.8435 7.84345 13.8701 7.82541 13.9023C7.82264 13.9133 7.81615 13.9443 7.81092 14.0083C7.80057 14.135 7.79995 14.3068 7.79995 14.6V20.2H16.2Z" fill="black"/>
</svg>
