<svg width="24" height="24" viewBox="0 0 24 24" fill="none" xmlns="http://www.w3.org/2000/svg">
<path fill-rule="evenodd" clip-rule="evenodd" d="M12 2.79995C6.91899 2.79995 2.80001 6.91893 2.80001 12C2.80001 17.081 6.91899 21.2 12 21.2C17.081 21.2 21.2 17.081 21.2 12C21.2 6.91893 17.081 2.79995 12 2.79995ZM1.20001 12C1.20001 6.03528 6.03534 1.19995 12 1.19995C17.9647 1.19995 22.8 6.03528 22.8 12C22.8 17.9646 17.9647 22.8 12 22.8C6.03534 22.8 1.20001 17.9646 1.20001 12ZM12 7.19995C12.4418 7.19995 12.8 7.55812 12.8 7.99995V12C12.8 12.4418 12.4418 12.8 12 12.8C11.5582 12.8 11.2 12.4418 11.2 12V7.99995C11.2 7.55812 11.5582 7.19995 12 7.19995ZM11.2 16C11.2 15.5581 11.5582 15.2 12 15.2H12.01C12.4518 15.2 12.81 15.5581 12.81 16C12.81 16.4418 12.4518 16.8 12.01 16.8H12C11.5582 16.8 11.2 16.4418 11.2 16Z" fill="black"/>
</svg>
