<svg width="24" height="24" viewBox="0 0 24 24" fill="none" xmlns="http://www.w3.org/2000/svg">
<path fill-rule="evenodd" clip-rule="evenodd" d="M3.20001 5.00001C3.20001 4.0059 4.0059 3.20001 5.00001 3.20001C5.99412 3.20001 6.80001 4.0059 6.80001 5.00001C6.80001 5.99412 5.99412 6.80001 5.00001 6.80001C4.0059 6.80001 3.20001 5.99412 3.20001 5.00001ZM10.2 5.00001C10.2 4.0059 11.0059 3.20001 12 3.20001C12.9941 3.20001 13.8 4.0059 13.8 5.00001C13.8 5.99412 12.9941 6.80001 12 6.80001C11.0059 6.80001 10.2 5.99412 10.2 5.00001ZM17.2 5.00001C17.2 4.0059 18.0059 3.20001 19 3.20001C19.9941 3.20001 20.8 4.0059 20.8 5.00001C20.8 5.99412 19.9941 6.80001 19 6.80001C18.0059 6.80001 17.2 5.99412 17.2 5.00001ZM3.20001 12C3.20001 11.0059 4.0059 10.2 5.00001 10.2C5.99412 10.2 6.80001 11.0059 6.80001 12C6.80001 12.9941 5.99412 13.8 5.00001 13.8C4.0059 13.8 3.20001 12.9941 3.20001 12ZM10.2 12C10.2 11.0059 11.0059 10.2 12 10.2C12.9941 10.2 13.8 11.0059 13.8 12C13.8 12.9941 12.9941 13.8 12 13.8C11.0059 13.8 10.2 12.9941 10.2 12ZM17.2 12C17.2 11.0059 18.0059 10.2 19 10.2C19.9941 10.2 20.8 11.0059 20.8 12C20.8 12.9941 19.9941 13.8 19 13.8C18.0059 13.8 17.2 12.9941 17.2 12ZM3.20001 19C3.20001 18.0059 4.0059 17.2 5.00001 17.2C5.99412 17.2 6.80001 18.0059 6.80001 19C6.80001 19.9941 5.99412 20.8 5.00001 20.8C4.0059 20.8 3.20001 19.9941 3.20001 19ZM10.2 19C10.2 18.0059 11.0059 17.2 12 17.2C12.9941 17.2 13.8 18.0059 13.8 19C13.8 19.9941 12.9941 20.8 12 20.8C11.0059 20.8 10.2 19.9941 10.2 19ZM17.2 19C17.2 18.0059 18.0059 17.2 19 17.2C19.9941 17.2 20.8 18.0059 20.8 19C20.8 19.9941 19.9941 20.8 19 20.8C18.0059 20.8 17.2 19.9941 17.2 19Z" fill="black"/>
</svg>
