<svg width="24" height="24" viewBox="0 0 24 24" fill="none" xmlns="http://www.w3.org/2000/svg">
<path fill-rule="evenodd" clip-rule="evenodd" d="M15.4517 3.83317C15.335 3.80516 15.2018 3.80001 14.6745 3.80001H7.80001V6.40001C7.80001 6.69324 7.80063 6.86505 7.81098 6.99167C7.81621 7.05573 7.8227 7.08673 7.82547 7.09766C7.84351 7.1299 7.87012 7.15652 7.90236 7.17455C7.9133 7.17732 7.9443 7.18381 8.00836 7.18905C8.13498 7.19939 8.30679 7.20001 8.60001 7.20001H15.4C15.6932 7.20001 15.865 7.19939 15.9917 7.18905C16.0557 7.18381 16.0867 7.17732 16.0977 7.17455C16.1299 7.15652 16.1565 7.1299 16.1746 7.09766C16.1773 7.08673 16.1838 7.05572 16.189 6.99167C16.1994 6.86505 16.2 6.69324 16.2 6.40001V4.33218C15.9645 4.09936 15.883 4.0286 15.7986 3.97685C15.6912 3.91105 15.5742 3.86257 15.4517 3.83317ZM17.8 5.93138V6.42747C17.8 6.68386 17.8001 6.92219 17.7837 7.12196C17.7661 7.33818 17.7254 7.57867 17.6038 7.8172C17.4313 8.15589 17.1559 8.43125 16.8172 8.60383C16.5787 8.72536 16.3382 8.76607 16.122 8.78373C15.9222 8.80006 15.6839 8.80004 15.4275 8.80002H8.57257C8.31617 8.80004 8.07784 8.80006 7.87807 8.78373C7.66184 8.76607 7.42136 8.72536 7.18283 8.60383C6.84414 8.43125 6.56877 8.15589 6.3962 7.8172C6.27466 7.57867 6.23396 7.33818 6.21629 7.12196C6.19997 6.92218 6.19999 6.68385 6.20001 6.42746C6.20001 6.41833 6.20001 6.40918 6.20001 6.40001V3.81925C6.09179 3.8242 5.99043 3.83041 5.89476 3.83823C5.44398 3.87506 5.19053 3.94335 5.00123 4.0398C4.58728 4.25072 4.25072 4.58728 4.0398 5.00124C3.94335 5.19053 3.87506 5.44398 3.83823 5.89477C3.80063 6.35489 3.80001 6.94673 3.80001 7.80001V16.2C3.80001 17.0533 3.80063 17.6451 3.83823 18.1053C3.87506 18.556 3.94335 18.8095 4.0398 18.9988C4.25072 19.4127 4.58728 19.7493 5.00123 19.9602C5.19053 20.0567 5.44398 20.125 5.89476 20.1618C5.99043 20.1696 6.09179 20.1758 6.20001 20.1808L6.20001 14.5726C6.19999 14.3162 6.19997 14.0778 6.21629 13.8781C6.23396 13.6618 6.27466 13.4214 6.3962 13.1828C6.56877 12.8441 6.84414 12.5688 7.18283 12.3962C7.42136 12.2747 7.66184 12.234 7.87807 12.2163C8.07785 12.2 8.31618 12.2 8.57258 12.2H15.4274C15.6838 12.2 15.9222 12.2 16.122 12.2163C16.3382 12.234 16.5787 12.2747 16.8172 12.3962C17.1559 12.5688 17.4313 12.8441 17.6038 13.1828C17.7254 13.4214 17.7661 13.6618 17.7837 13.8781C17.8001 14.0778 17.8 14.3162 17.8 14.5726V20.1808C17.9082 20.1758 18.0096 20.1696 18.1053 20.1618C18.556 20.125 18.8095 20.0567 18.9988 19.9602C19.4127 19.7493 19.7493 19.4127 19.9602 18.9988C20.0567 18.8095 20.125 18.556 20.1618 18.1053C20.1994 17.6451 20.2 17.0533 20.2 16.2V9.3255C20.2 8.79824 20.1949 8.665 20.1669 8.54831C20.1375 8.42586 20.089 8.30881 20.0232 8.20144C19.9605 8.09912 19.8699 8.00127 19.4971 7.62844L17.8 5.93138ZM16.9533 21.7987C16.9688 21.7996 16.9843 21.8 17 21.8C17.0195 21.8 17.0389 21.7993 17.0581 21.7979C17.5061 21.7943 17.8961 21.7842 18.2355 21.7565C18.7853 21.7116 19.2727 21.6164 19.7252 21.3858C20.4402 21.0215 21.0215 20.4402 21.3858 19.7252C21.6164 19.2727 21.7116 18.7853 21.7565 18.2356C21.8 17.7026 21.8 17.0452 21.8 16.234V9.3255C21.8 9.30021 21.8 9.27523 21.8 9.25053C21.8003 8.83453 21.8005 8.49919 21.7226 8.17479C21.6541 7.88909 21.5409 7.61597 21.3874 7.36545C21.2131 7.08099 20.9758 6.84402 20.6815 6.55005C20.664 6.5326 20.6463 6.51495 20.6284 6.49707L17.503 3.37159C17.4851 3.35372 17.4674 3.33605 17.45 3.31858C17.156 3.02422 16.919 2.78694 16.6346 2.61262C16.3841 2.4591 16.1109 2.34597 15.8252 2.27738C15.5008 2.1995 15.1655 2.19971 14.7495 2.19998C14.7248 2.2 14.6998 2.20001 14.6745 2.20001L7.76601 2.20001C7.51138 2.20001 7.27191 2.20001 7.04669 2.20135C7.03124 2.20046 7.01568 2.20001 7.00001 2.20001C6.98049 2.20001 6.96112 2.20071 6.94195 2.20209C6.49391 2.20574 6.10396 2.21581 5.76447 2.24354C5.21474 2.28846 4.72729 2.38366 4.27485 2.61419C3.55983 2.97851 2.97851 3.55983 2.61419 4.27485C2.38366 4.72729 2.28846 5.21475 2.24354 5.76447C2.2 6.29744 2.2 6.95479 2.20001 7.76602V16.234C2.2 17.0452 2.2 17.7026 2.24354 18.2356C2.28846 18.7853 2.38366 19.2727 2.61419 19.7252C2.97851 20.4402 3.55983 21.0215 4.27485 21.3858C4.72729 21.6164 5.21474 21.7116 5.76447 21.7565C6.10396 21.7842 6.49391 21.7943 6.94195 21.7979C6.96113 21.7993 6.98049 21.8 7.00001 21.8C7.01568 21.8 7.03124 21.7996 7.04669 21.7987C7.2719 21.8 7.51137 21.8 7.76599 21.8H16.234C16.4887 21.8 16.7281 21.8 16.9533 21.7987ZM16.2 20.2V14.6C16.2 14.3068 16.1994 14.135 16.189 14.0084C16.1838 13.9443 16.1773 13.9133 16.1746 13.9024C16.1565 13.8701 16.1299 13.8435 16.0977 13.8255C16.0867 13.8227 16.0557 13.8162 15.9917 13.811C15.865 13.8006 15.6932 13.8 15.4 13.8H8.60001C8.30679 13.8 8.13498 13.8006 8.00836 13.811C7.9443 13.8162 7.9133 13.8227 7.90236 13.8255C7.87012 13.8435 7.84351 13.8701 7.82547 13.9024C7.8227 13.9133 7.81621 13.9443 7.81098 14.0084C7.80063 14.135 7.80001 14.3068 7.80001 14.6L7.80001 20.2H16.2ZM7.82683 13.8976C7.82683 13.8976 7.82672 13.898 7.82648 13.8986L7.82683 13.8976ZM16.1024 13.8268C16.1024 13.8268 16.102 13.8267 16.1014 13.8265L16.1024 13.8268ZM16.1732 7.10244C16.1732 7.10242 16.1733 7.10205 16.1735 7.10137L16.1732 7.10244ZM7.89759 7.1732C7.89761 7.1732 7.89797 7.17331 7.89864 7.17354L7.89759 7.1732Z" fill="black"/>
</svg>
