<svg width="24" height="24" viewBox="0 0 24 24" fill="none" xmlns="http://www.w3.org/2000/svg">
<path fill-rule="evenodd" clip-rule="evenodd" d="M3.57257 2.19995C3.58169 2.19995 3.59084 2.19995 3.60001 2.19995L20.4275 2.19995C20.6839 2.19993 20.9222 2.19991 21.122 2.21624C21.3382 2.2339 21.5787 2.27461 21.8172 2.39614C22.1559 2.56871 22.4313 2.84408 22.6038 3.18277C22.7254 3.4213 22.7661 3.66179 22.7837 3.87801C22.8001 4.07778 22.8 4.3161 22.8 4.57249V5.26935C22.8 5.28713 22.8001 5.3051 22.8001 5.32323C22.8005 5.5362 22.801 5.77203 22.7409 6.00087C22.6885 6.20021 22.6023 6.38908 22.4859 6.55923C22.3524 6.75455 22.1738 6.90863 22.0126 7.04777C21.9989 7.05961 21.9853 7.07135 21.9718 7.083L15.5761 12.626C15.4688 12.719 15.41 12.7702 15.3677 12.8107C15.3463 12.8312 15.3368 12.8418 15.3337 12.8454C15.3218 12.8633 15.3128 12.883 15.3071 12.9037C15.3064 12.9084 15.3046 12.9226 15.3031 12.9522C15.3002 13.0107 15.3 13.0886 15.3 13.2306V18.4583C15.3 18.4707 15.3001 18.4844 15.3002 18.4991C15.3014 18.6413 15.3033 18.8872 15.218 19.1158C15.1455 19.3101 15.0277 19.4841 14.8743 19.6236C14.6937 19.7876 14.4646 19.8772 14.3322 19.9289C14.3185 19.9343 14.3057 19.9393 14.2942 19.9439L10.8694 21.3138C10.7075 21.3786 10.5398 21.4457 10.394 21.4893C10.2385 21.5356 10.0029 21.5898 9.73552 21.5342C9.4001 21.4645 9.10576 21.2653 8.91647 20.9797C8.76556 20.7521 8.72835 20.5132 8.71369 20.3517C8.69994 20.2001 8.69997 20.0195 8.70001 19.845L8.70001 13.2306C8.70001 13.0886 8.69979 13.0107 8.69689 12.9522C8.69542 12.9226 8.69363 12.9085 8.6929 12.9037C8.68722 12.883 8.67823 12.8633 8.66629 12.8454C8.6632 12.8418 8.65369 12.8312 8.6323 12.8107C8.58999 12.7702 8.53125 12.719 8.42396 12.626L2.02818 7.083C2.01474 7.07135 2.00114 7.05962 1.98741 7.04777C1.82618 6.90863 1.64764 6.75455 1.5141 6.55923C1.39777 6.38908 1.31153 6.20021 1.25914 6.00087C1.19899 5.77203 1.19949 5.5362 1.19994 5.32324C1.19998 5.3051 1.20001 5.28713 1.20001 5.26935V4.59995C1.20001 4.59078 1.20001 4.58163 1.20001 4.57251C1.19999 4.31611 1.19997 4.07779 1.21629 3.87801C1.23396 3.66179 1.27466 3.4213 1.3962 3.18277C1.56877 2.84408 1.84414 2.56871 2.18283 2.39614C2.42136 2.27461 2.66185 2.2339 2.87807 2.21624C3.07784 2.19991 3.31617 2.19993 3.57257 2.19995ZM8.66749 12.8469C8.66754 12.847 8.66681 12.8461 8.66629 12.8454L8.66749 12.8469ZM15.3325 12.8469C15.3325 12.8469 15.3332 12.8461 15.3337 12.8454L15.3325 12.8469ZM2.90236 3.82541C2.87013 3.84345 2.84351 3.87007 2.82547 3.9023C2.8227 3.91324 2.81621 3.94424 2.81098 4.0083C2.80064 4.13492 2.80001 4.30673 2.80001 4.59995V5.26935C2.80001 5.41132 2.80024 5.48926 2.80314 5.54776C2.8046 5.57732 2.80639 5.59145 2.80712 5.59617C2.81281 5.61692 2.8218 5.63661 2.83375 5.65449C2.83685 5.65814 2.84636 5.66874 2.86773 5.6892C2.91003 5.7297 2.96878 5.78091 3.07607 5.8739L9.47185 11.4169C9.48528 11.4286 9.49889 11.4403 9.51262 11.4521C9.67384 11.5913 9.85239 11.7454 9.98593 11.9407C10.1023 12.1108 10.1885 12.2997 10.2409 12.499C10.301 12.7279 10.3005 12.9637 10.3001 13.1767C10.3001 13.1948 10.3 13.2128 10.3 13.2306V19.8183L13.7 18.4583V13.2306C13.7 13.2128 13.7 13.1948 13.6999 13.1767C13.6995 12.9637 13.699 12.7279 13.7591 12.499C13.8115 12.2997 13.8978 12.1108 14.0141 11.9407C14.1476 11.7454 14.3262 11.5913 14.4874 11.4521C14.5011 11.4403 14.5147 11.4286 14.5282 11.4169L20.924 5.8739C21.0312 5.78091 21.09 5.7297 21.1323 5.6892C21.1537 5.66872 21.1632 5.65812 21.1663 5.65447C21.1782 5.63659 21.1872 5.61689 21.1929 5.59613C21.1936 5.59136 21.1954 5.57723 21.1969 5.54775C21.1998 5.48926 21.2 5.41132 21.2 5.26935V4.59995C21.2 4.30673 21.1994 4.13492 21.189 4.0083C21.1838 3.94425 21.1773 3.91324 21.1746 3.9023C21.1565 3.87007 21.1299 3.84345 21.0977 3.82541C21.0867 3.82264 21.0557 3.81616 20.9917 3.81092C20.865 3.80058 20.6932 3.79995 20.4 3.79995H3.60001C3.30679 3.79995 3.13498 3.80058 3.00836 3.81092C2.9443 3.81616 2.9133 3.82265 2.90236 3.82541ZM21.1024 3.82677C21.1024 3.82677 21.1021 3.82666 21.1014 3.82642L21.1024 3.82677ZM21.1926 5.59806C21.1925 5.59813 21.1927 5.59698 21.1929 5.59613L21.1926 5.59806ZM2.83254 5.65299C2.83256 5.653 2.83329 5.65387 2.83375 5.65449L2.83254 5.65299ZM2.80746 5.59807C2.80745 5.59809 2.80726 5.59702 2.80712 5.59617L2.80746 5.59807Z" fill="black"/>
</svg>
