<svg width="24" height="24" viewBox="0 0 24 24" fill="none" xmlns="http://www.w3.org/2000/svg">
<path fill-rule="evenodd" clip-rule="evenodd" d="M18 2.79995C16.785 2.79995 15.8 3.78492 15.8 4.99995C15.8 5.38511 15.899 5.74716 16.0729 6.06204C16.0827 6.07652 16.092 6.09142 16.101 6.10673C16.1098 6.12191 16.1181 6.13726 16.1259 6.15276C16.5132 6.78111 17.2077 7.19995 18 7.19995C19.215 7.19995 20.2 6.21498 20.2 4.99995C20.2 3.78492 19.215 2.79995 18 2.79995ZM15.1939 7.56234C15.8887 8.32287 16.8887 8.79995 18 8.79995C20.0987 8.79995 21.8 7.09863 21.8 4.99995C21.8 2.90127 20.0987 1.19995 18 1.19995C15.9013 1.19995 14.2 2.90127 14.2 4.99995C14.2 5.41215 14.2656 5.80902 14.387 6.18068L8.80614 9.43756C8.11128 8.67703 7.11136 8.19995 6.00001 8.19995C3.90133 8.19995 2.20001 9.90127 2.20001 12C2.20001 14.0986 3.90133 15.8 6.00001 15.8C7.11153 15.8 8.11158 15.3227 8.80645 14.562L14.3885 17.8148C14.2662 18.1877 14.2 18.5861 14.2 19C14.2 21.0986 15.9013 22.8 18 22.8C20.0987 22.8 21.8 21.0986 21.8 19C21.8 16.9013 20.0987 15.2 18 15.2C16.8904 15.2 15.8918 15.6756 15.197 16.4341L9.61315 13.1802C9.73443 12.8087 9.80001 12.412 9.80001 12C9.80001 11.5878 9.73438 11.1909 9.613 10.8192L15.1939 7.56234ZM7.87415 10.8471C7.8819 10.8626 7.8902 10.878 7.89906 10.8932C7.908 10.9085 7.91736 10.9234 7.92713 10.9379C8.10103 11.2527 8.20001 11.6148 8.20001 12C8.20001 12.3851 8.10104 12.7472 7.92713 13.062C7.91727 13.0767 7.90782 13.0917 7.89881 13.1072C7.89005 13.1222 7.88183 13.1374 7.87416 13.1527C7.48683 13.7811 6.79233 14.2 6.00001 14.2C4.78499 14.2 3.80001 13.215 3.80001 12C3.80001 10.7849 4.78499 9.79995 6.00001 9.79995C6.79233 9.79995 7.48682 10.2188 7.87415 10.8471ZM16.0458 17.9885C16.0695 17.9586 16.0914 17.9267 16.1112 17.8927C16.1303 17.86 16.1468 17.8265 16.1607 17.7924C16.554 17.1946 17.2309 16.8 18 16.8C19.215 16.8 20.2 17.7849 20.2 19C20.2 20.215 19.215 21.2 18 21.2C16.785 21.2 15.8 20.215 15.8 19C15.8 18.6353 15.8887 18.2913 16.0458 17.9885Z" fill="black"/>
</svg>
