<svg width="24" height="24" viewBox="0 0 24 24" fill="none" xmlns="http://www.w3.org/2000/svg">
<path fill-rule="evenodd" clip-rule="evenodd" d="M12 2.19995C12.4418 2.19995 12.8 2.55812 12.8 2.99995V13.0686L16.4343 9.43427C16.7467 9.12185 17.2533 9.12185 17.5657 9.43427C17.8781 9.74669 17.8781 10.2532 17.5657 10.5656L12.5657 15.5656C12.2533 15.8781 11.7467 15.8781 11.4343 15.5656L6.43433 10.5656C6.12191 10.2532 6.12191 9.74669 6.43433 9.43427C6.74675 9.12185 7.25328 9.12185 7.5657 9.43427L11.2 13.0686V2.99995C11.2 2.55812 11.5582 2.19995 12 2.19995ZM3.00001 14.2C3.44184 14.2 3.80001 14.5581 3.80001 15V16.2C3.80001 17.0532 3.80063 17.6451 3.83823 18.1052C3.87506 18.556 3.94335 18.8094 4.0398 18.9987C4.25072 19.4127 4.58728 19.7492 5.00123 19.9602C5.19053 20.0566 5.44398 20.1249 5.89476 20.1617C6.35489 20.1993 6.94673 20.2 7.80001 20.2H16.2C17.0533 20.2 17.6451 20.1993 18.1053 20.1617C18.556 20.1249 18.8095 20.0566 18.9988 19.9602C19.4127 19.7492 19.7493 19.4127 19.9602 18.9987C20.0567 18.8094 20.125 18.556 20.1618 18.1052C20.1994 17.6451 20.2 17.0532 20.2 16.2V15C20.2 14.5581 20.5582 14.2 21 14.2C21.4418 14.2 21.8 14.5581 21.8 15V16.234C21.8 17.0452 21.8 17.7025 21.7565 18.2355C21.7116 18.7852 21.6164 19.2727 21.3858 19.7251C21.0215 20.4401 20.4402 21.0215 19.7252 21.3858C19.2727 21.6163 18.7853 21.7115 18.2356 21.7564C17.7026 21.8 17.0452 21.8 16.234 21.8H7.76599C6.95478 21.8 6.29743 21.8 5.76447 21.7564C5.21474 21.7115 4.72729 21.6163 4.27485 21.3858C3.55983 21.0215 2.97851 20.4401 2.61419 19.7251C2.38366 19.2727 2.28846 18.7852 2.24354 18.2355C2.2 17.7025 2.2 17.0452 2.20001 16.2339L2.20001 15C2.20001 14.5581 2.55818 14.2 3.00001 14.2Z" fill="black"/>
</svg>
