<svg width="24" height="24" viewBox="0 0 24 24" fill="none" xmlns="http://www.w3.org/2000/svg">
<path fill-rule="evenodd" clip-rule="evenodd" d="M1.20001 12C1.20001 8.79676 3.79676 6.20001 7.00001 6.20001H17C20.2033 6.20001 22.8 8.79676 22.8 12C22.8 15.2033 20.2033 17.8 17 17.8H7.00001C3.79676 17.8 1.20001 15.2033 1.20001 12ZM11 16.2H17C19.3196 16.2 21.2 14.3196 21.2 12C21.2 9.68042 19.3196 7.80001 17 7.80001H11C12.1089 8.85644 12.8 10.3475 12.8 12C12.8 13.6525 12.1089 15.1436 11 16.2ZM7.00001 7.80001C4.68042 7.80001 2.80001 9.68042 2.80001 12C2.80001 14.3196 4.68042 16.2 7.00001 16.2C9.31961 16.2 11.2 14.3196 11.2 12C11.2 9.68042 9.31961 7.80001 7.00001 7.80001Z" fill="black"/>
</svg>
