<svg width="24" height="24" viewBox="0 0 24 24" fill="none" xmlns="http://www.w3.org/2000/svg">
<path fill-rule="evenodd" clip-rule="evenodd" d="M2.43474 2.43427C2.74716 2.12185 3.25369 2.12185 3.56611 2.43427L7.21368 6.08183C7.26613 6.12238 7.31422 6.17007 7.35644 6.22459L10.4445 9.31263C10.4446 9.31273 10.4447 9.31284 10.4448 9.31295C10.4449 9.31305 10.445 9.31316 10.4451 9.31327L14.687 13.5551C14.6871 13.5553 14.6873 13.5554 14.6874 13.5556C14.6876 13.5557 14.6877 13.5559 14.6879 13.556L17.7661 16.6342C17.8272 16.6796 17.8826 16.7345 17.9302 16.7983L21.5661 20.4343C21.8785 20.7467 21.8785 21.2532 21.5661 21.5656C21.2537 21.8781 20.7472 21.8781 20.4347 21.5656L17.1711 18.302C15.7234 19.1746 13.99 19.8 12.0004 19.8C9.20059 19.8 6.91146 18.5629 5.20533 17.139C3.50107 15.7166 2.33048 14.0694 1.74375 13.1403C1.73634 13.1286 1.72885 13.1168 1.72129 13.1049C1.60288 12.9182 1.46721 12.7043 1.39794 12.402C1.34235 12.1595 1.34237 11.8402 1.39799 11.5976C1.4673 11.2954 1.60337 11.0809 1.72212 10.8937C1.72975 10.8817 1.7373 10.8698 1.74477 10.858L2.21279 11.1536L1.74477 10.858C2.36101 9.88246 3.63021 8.10028 5.49482 6.62572L2.43474 3.56564C2.12232 3.25322 2.12232 2.74669 2.43474 2.43427ZM6.63489 7.76578C4.89478 9.09864 3.68648 10.7801 3.09747 11.7125C3.02302 11.8304 2.99231 11.8801 2.97218 11.9188C2.96309 11.9363 2.96052 11.9432 2.95885 11.9496C2.95866 11.9511 2.95839 11.9534 2.95811 11.9565C2.95706 11.9675 2.95626 11.9827 2.95626 11.9999C2.95626 12.0172 2.95706 12.0323 2.9581 12.0434C2.95839 12.0464 2.95865 12.0487 2.95884 12.0502C2.96054 12.0568 2.96306 12.0636 2.97205 12.0809C2.99198 12.1192 3.0224 12.1685 3.09655 12.286C3.63522 13.1389 4.70227 14.6351 6.23055 15.9106C7.75696 17.1845 9.69526 18.2 12.0004 18.2C13.4917 18.2 14.828 17.7756 15.9999 17.1308L14.0618 15.1927C13.4681 15.5766 12.7599 15.8 12.0004 15.8C9.90175 15.8 8.20043 14.0986 8.20043 12C8.20043 11.2404 8.42381 10.5323 8.80772 9.93862L6.63489 7.76578ZM9.98503 11.1159C9.86621 11.3864 9.80043 11.6853 9.80043 12C9.80043 13.215 10.7854 14.2 12.0004 14.2C12.3151 14.2 12.614 14.1342 12.8845 14.0154L9.98503 11.1159ZM12.0004 5.79995C11.6086 5.79995 11.2284 5.82919 10.86 5.88367C10.4229 5.94829 10.0162 5.64635 9.95156 5.20928C9.88694 4.7722 10.1889 4.36549 10.6259 4.30087C11.0703 4.23518 11.5287 4.19995 12.0004 4.19995C14.8003 4.19995 17.0894 5.43697 18.7955 6.86093C20.4998 8.28332 21.6704 9.93055 22.2571 10.8596C22.2645 10.8713 22.272 10.8831 22.2796 10.8951C22.398 11.0818 22.5337 11.2957 22.6029 11.5979C22.6585 11.8405 22.6585 12.1598 22.6029 12.4024L21.8231 12.2235L22.6029 12.4024C22.5335 12.7047 22.3972 12.9195 22.2783 13.1069C22.2706 13.119 22.263 13.131 22.2555 13.1428C21.9409 13.6408 21.463 14.3378 20.8299 15.094C20.5462 15.4328 20.0417 15.4774 19.7029 15.1938C19.3642 14.9101 19.3195 14.4056 19.6031 14.0668C20.1813 13.3763 20.6178 12.7394 20.9029 12.2882C20.9775 12.1701 21.0084 12.1201 21.0286 12.0812C21.0378 12.0636 21.0404 12.0567 21.042 12.0503C21.0422 12.0488 21.0425 12.0465 21.0428 12.0435C21.0438 12.0324 21.0446 12.0173 21.0446 12C21.0446 11.9827 21.0438 11.9676 21.0428 11.9566C21.0425 11.9535 21.0422 11.9512 21.042 11.9497C21.0403 11.9431 21.0378 11.9363 21.0288 11.919C21.0089 11.8807 20.9785 11.8314 20.9043 11.714C20.3656 10.861 19.2986 9.36484 17.7703 8.08931C16.2439 6.81535 14.3056 5.79995 12.0004 5.79995Z" fill="black"/>
</svg>
