<svg width="24" height="24" viewBox="0 0 24 24" fill="none" xmlns="http://www.w3.org/2000/svg">
<path fill-rule="evenodd" clip-rule="evenodd" d="M7.76601 2.19995H16.234C17.0452 2.19994 17.7026 2.19994 18.2356 2.24348C18.7853 2.2884 19.2727 2.3836 19.7252 2.61413C20.4402 2.97845 21.0215 3.55977 21.3858 4.27479C21.6164 4.72723 21.7116 5.21468 21.7565 5.76441C21.8 6.29737 21.8 6.95472 21.8 7.76593V16.234C21.8 17.0452 21.8 17.7025 21.7565 18.2355C21.7116 18.7852 21.6164 19.2727 21.3858 19.7251C21.0215 20.4401 20.4402 21.0215 19.7252 21.3858C19.2727 21.6163 18.7853 21.7115 18.2356 21.7564C17.7026 21.8 17.0452 21.8 16.234 21.8H7.76599C6.95478 21.8 6.29743 21.8 5.76447 21.7564C5.21474 21.7115 4.72729 21.6163 4.27485 21.3858C3.55983 21.0215 2.97851 20.4401 2.61419 19.7251C2.38366 19.2727 2.28846 18.7852 2.24354 18.2355C2.2 17.7025 2.2 17.0452 2.20001 16.2339V7.76595C2.2 6.95473 2.2 6.29738 2.24354 5.76441C2.28846 5.21468 2.38366 4.72723 2.61419 4.27479C2.97851 3.55977 3.55983 2.97845 4.27485 2.61413C4.72729 2.3836 5.21474 2.2884 5.76447 2.24348C6.29744 2.19994 6.95479 2.19994 7.76601 2.19995ZM5.89476 3.83817C5.44398 3.875 5.19053 3.94329 5.00123 4.03974C4.58728 4.25066 4.25072 4.58722 4.0398 5.00117C3.94335 5.19047 3.87506 5.44392 3.83823 5.8947C3.80063 6.35483 3.80001 6.94667 3.80001 7.79995V16.2C3.80001 17.0532 3.80063 17.6451 3.83823 18.1052C3.87506 18.556 3.94335 18.8094 4.0398 18.9987C4.25072 19.4127 4.58728 19.7492 5.00123 19.9602C5.19053 20.0566 5.44398 20.1249 5.89476 20.1617C6.35489 20.1993 6.94673 20.2 7.80001 20.2H16.2C17.0533 20.2 17.6451 20.1993 18.1053 20.1617C18.556 20.1249 18.8095 20.0566 18.9988 19.9602C19.4127 19.7492 19.7493 19.4127 19.9602 18.9987C20.0567 18.8094 20.125 18.556 20.1618 18.1052C20.1994 17.6451 20.2 17.0532 20.2 16.2V7.79995C20.2 6.94667 20.1994 6.35483 20.1618 5.8947C20.125 5.44392 20.0567 5.19047 19.9602 5.00117C19.7493 4.58722 19.4127 4.25066 18.9988 4.03974C18.8095 3.94329 18.556 3.875 18.1053 3.83817C17.6451 3.80057 17.0533 3.79995 16.2 3.79995H7.80001C6.94673 3.79995 6.35489 3.80057 5.89476 3.83817ZM11.2 7.99995C11.2 7.55812 11.5582 7.19995 12 7.19995H12.01C12.4518 7.19995 12.81 7.55812 12.81 7.99995C12.81 8.44178 12.4518 8.79995 12.01 8.79995H12C11.5582 8.79995 11.2 8.44178 11.2 7.99995ZM12 11.2C12.4418 11.2 12.8 11.5581 12.8 12V16C12.8 16.4418 12.4418 16.8 12 16.8C11.5582 16.8 11.2 16.4418 11.2 16V12C11.2 11.5581 11.5582 11.2 12 11.2Z" fill="black"/>
</svg>
