<svg width="24" height="24" viewBox="0 0 24 24" fill="none" xmlns="http://www.w3.org/2000/svg">
<path fill-rule="evenodd" clip-rule="evenodd" d="M19.5657 4.43427C19.8781 4.74669 19.8781 5.25322 19.5657 5.56564L16.9314 8.19995H19C19.4418 8.19995 19.8 8.55812 19.8 8.99995C19.8 9.44178 19.4418 9.79995 19 9.79995H15.3314L10.9314 14.2H19C19.4418 14.2 19.8 14.5581 19.8 15C19.8 15.4418 19.4418 15.8 19 15.8H9.33138L5.5657 19.5656C5.25328 19.8781 4.74675 19.8781 4.43433 19.5656C4.12191 19.2532 4.12191 18.7467 4.43433 18.4343L7.06864 15.8H5.00001C4.55818 15.8 4.20001 15.4418 4.20001 15C4.20001 14.5581 4.55818 14.2 5.00001 14.2H8.66864L13.0686 9.79995H5.00001C4.55818 9.79995 4.20001 9.44178 4.20001 8.99995C4.20001 8.55812 4.55818 8.19995 5.00001 8.19995H14.6686L18.4343 4.43427C18.7467 4.12185 19.2533 4.12185 19.5657 4.43427Z" fill="black"/>
</svg>
