<svg width="24" height="24" viewBox="0 0 24 24" fill="none" xmlns="http://www.w3.org/2000/svg">
<path fill-rule="evenodd" clip-rule="evenodd" d="M12 2.80001C6.91899 2.80001 2.80001 6.91899 2.80001 12C2.80001 17.081 6.91899 21.2 12 21.2C17.081 21.2 21.2 17.081 21.2 12C21.2 6.91899 17.081 2.80001 12 2.80001ZM1.20001 12C1.20001 6.03534 6.03534 1.20001 12 1.20001C17.9647 1.20001 22.8 6.03534 22.8 12C22.8 17.9647 17.9647 22.8 12 22.8C6.03534 22.8 1.20001 17.9647 1.20001 12ZM17.0657 8.43433C17.3781 8.74675 17.3781 9.25328 17.0657 9.5657L11.0657 15.5657C10.7533 15.8781 10.2467 15.8781 9.93433 15.5657L6.93433 12.5657C6.62191 12.2533 6.62191 11.7467 6.93433 11.4343C7.24675 11.1219 7.75328 11.1219 8.0657 11.4343L10.5 13.8686L15.9343 8.43433C16.2467 8.12191 16.7533 8.12191 17.0657 8.43433Z" fill="black"/>
</svg>
