<svg width="24" height="24" viewBox="0 0 24 24" fill="none" xmlns="http://www.w3.org/2000/svg">
<path fill-rule="evenodd" clip-rule="evenodd" d="M4.95344 6.08481C3.6095 7.68411 2.80001 9.74753 2.80001 12C2.80001 14.2525 3.60949 16.3159 4.9534 17.9152L10.8686 12L4.95344 6.08481ZM6.08481 4.95344L12 10.8686L17.9152 4.9534C16.3159 3.60949 14.2525 2.80001 12 2.80001C9.74753 2.80001 7.68411 3.6095 6.08481 4.95344ZM19.0466 6.08477L13.1313 12L19.0466 17.9152C20.3905 16.3159 21.2 14.2525 21.2 12C21.2 9.74751 20.3905 7.68408 19.0466 6.08477ZM17.9152 19.0466L12 13.1313L6.08476 19.0466C7.68408 20.3905 9.74751 21.2 12 21.2C14.2525 21.2 16.3159 20.3905 17.9152 19.0466ZM1.20001 12C1.20001 6.03534 6.03534 1.20001 12 1.20001C17.9647 1.20001 22.8 6.03534 22.8 12C22.8 17.9647 17.9647 22.8 12 22.8C6.03534 22.8 1.20001 17.9647 1.20001 12Z" fill="black"/>
</svg>
