<svg width="24" height="24" viewBox="0 0 24 24" fill="none" xmlns="http://www.w3.org/2000/svg">
<path fill-rule="evenodd" clip-rule="evenodd" d="M5.41134 7.31201C6.16231 4.37289 8.82672 2.19995 12 2.19995C15.1733 2.19995 17.8377 4.37289 18.5887 7.31201C20.9939 7.81439 22.8 9.94585 22.8 12.5C22.8 14.3383 21.8634 15.9576 20.445 16.907C20.0779 17.1528 19.581 17.0543 19.3352 16.6872C19.0894 16.32 19.1878 15.8231 19.555 15.5774C20.5486 14.9123 21.2 13.782 21.2 12.5C21.2 10.5735 19.7271 8.99008 17.8465 8.81591C17.484 8.78234 17.1899 8.5083 17.1309 8.1491C16.7253 5.68212 14.5817 3.79995 12 3.79995C9.41834 3.79995 7.27472 5.68212 6.86916 8.1491C6.81011 8.5083 6.516 8.78234 6.15353 8.81591C4.27294 8.99008 2.80001 10.5735 2.80001 12.5C2.80001 13.782 3.45142 14.9123 4.44502 15.5774C4.81218 15.8231 4.91059 16.32 4.66482 16.6872C4.41905 17.0543 3.92217 17.1528 3.555 16.907C2.13664 15.9576 1.20001 14.3383 1.20001 12.5C1.20001 9.94585 3.00616 7.81439 5.41134 7.31201ZM11.2 13.9313L8.5657 16.5656C8.25328 16.8781 7.74675 16.8781 7.43433 16.5656C7.12191 16.2532 7.12191 15.7467 7.43433 15.4343L11.4343 11.4343C11.7467 11.1218 12.2533 11.1218 12.5657 11.4343L16.5657 15.4343C16.8781 15.7467 16.8781 16.2532 16.5657 16.5656C16.2533 16.8781 15.7467 16.8781 15.4343 16.5656L12.8 13.9313V21C12.8 21.4418 12.4418 21.8 12 21.8C11.5582 21.8 11.2 21.4418 11.2 21V13.9313Z" fill="black"/>
</svg>
