<svg width="24" height="24" viewBox="0 0 24 24" fill="none" xmlns="http://www.w3.org/2000/svg">
<path fill-rule="evenodd" clip-rule="evenodd" d="M10.2 5.99995C10.2 5.00584 11.0059 4.19995 12 4.19995C12.9941 4.19995 13.8 5.00584 13.8 5.99995C13.8 6.99406 12.9941 7.79995 12 7.79995C11.0059 7.79995 10.2 6.99406 10.2 5.99995ZM3.20001 12C3.20001 11.5581 3.55818 11.2 4.00001 11.2H20C20.4418 11.2 20.8 11.5581 20.8 12C20.8 12.4418 20.4418 12.8 20 12.8H4.00001C3.55818 12.8 3.20001 12.4418 3.20001 12ZM10.2 18C10.2 17.0058 11.0059 16.2 12 16.2C12.9941 16.2 13.8 17.0058 13.8 18C13.8 18.9941 12.9941 19.8 12 19.8C11.0059 19.8 10.2 18.9941 10.2 18Z" fill="black"/>
</svg>
