<svg width="24" height="24" viewBox="0 0 24 24" fill="none" xmlns="http://www.w3.org/2000/svg">
<path fill-rule="evenodd" clip-rule="evenodd" d="M18.1053 3.83817C17.6451 3.80057 17.0533 3.79995 16.2 3.79995H15C14.5582 3.79995 14.2 3.44178 14.2 2.99995C14.2 2.55812 14.5582 2.19995 15 2.19995L16.234 2.19995C17.0452 2.19994 17.7026 2.19994 18.2356 2.24348C18.7853 2.2884 19.2727 2.3836 19.7252 2.61413C20.4402 2.97845 21.0215 3.55977 21.3858 4.27479C21.6164 4.72723 21.7116 5.21468 21.7565 5.76441C21.8 6.29737 21.8 6.95472 21.8 7.76593V16.234C21.8 17.0452 21.8 17.7025 21.7565 18.2355C21.7116 18.7852 21.6164 19.2727 21.3858 19.7251C21.0215 20.4401 20.4402 21.0215 19.7252 21.3858C19.2727 21.6163 18.7853 21.7115 18.2356 21.7564C17.7026 21.8 17.0452 21.8 16.234 21.8H15C14.5582 21.8 14.2 21.4418 14.2 21C14.2 20.5581 14.5582 20.2 15 20.2H16.2C17.0533 20.2 17.6451 20.1993 18.1053 20.1617C18.556 20.1249 18.8095 20.0566 18.9988 19.9602C19.4127 19.7492 19.7493 19.4127 19.9602 18.9987C20.0567 18.8094 20.125 18.556 20.1618 18.1052C20.1994 17.6451 20.2 17.0532 20.2 16.2V7.79995C20.2 6.94667 20.1994 6.35483 20.1618 5.8947C20.125 5.44392 20.0567 5.19047 19.9602 5.00117C19.7493 4.58722 19.4127 4.25066 18.9988 4.03974C18.8095 3.94329 18.556 3.875 18.1053 3.83817ZM9.43433 6.43427C9.74675 6.12185 10.2533 6.12185 10.5657 6.43427L15.5657 11.4343C15.8781 11.7467 15.8781 12.2532 15.5657 12.5656L10.5657 17.5656C10.2533 17.8781 9.74675 17.8781 9.43433 17.5656C9.12191 17.2532 9.12191 16.7467 9.43433 16.4343L13.0686 12.8L3.00001 12.8C2.55818 12.8 2.20001 12.4418 2.20001 12C2.20001 11.5581 2.55818 11.2 3.00001 11.2L13.0686 11.2L9.43433 7.56564C9.12191 7.25322 9.12191 6.74669 9.43433 6.43427Z" fill="black"/>
</svg>
