<svg width="24" height="24" viewBox="0 0 24 24" fill="none" xmlns="http://www.w3.org/2000/svg">
<path fill-rule="evenodd" clip-rule="evenodd" d="M11.1679 1.20001H12.8321C13.3648 1.2 13.8125 1.19999 14.1788 1.22992C14.5617 1.26121 14.9257 1.32916 15.2712 1.50519C15.798 1.77364 16.2264 2.20199 16.4948 2.72884C16.6709 3.07433 16.7388 3.43829 16.7701 3.82127C16.8 4.18757 16.8 4.63518 16.8 5.16787V5.20001H21C21.4418 5.20001 21.8 5.55819 21.8 6.00001C21.8 6.44184 21.4418 6.80001 21 6.80001H19.8V17.234C19.8 18.0452 19.8 18.7026 19.7565 19.2356C19.7116 19.7853 19.6164 20.2727 19.3858 20.7252C19.0215 21.4402 18.4402 22.0215 17.7252 22.3858C17.2727 22.6164 16.7853 22.7116 16.2356 22.7565C15.7026 22.8 15.0452 22.8 14.234 22.8H9.76599C8.95478 22.8 8.29743 22.8 7.76447 22.7565C7.21474 22.7116 6.72729 22.6164 6.27485 22.3858C5.55983 22.0215 4.97851 21.4402 4.61419 20.7252C4.38366 20.2727 4.28846 19.7853 4.24354 19.2356C4.2 18.7026 4.2 18.0452 4.20001 17.234L4.20001 6.80001H3.00001C2.55818 6.80001 2.20001 6.44184 2.20001 6.00001C2.20001 5.55819 2.55818 5.20001 3.00001 5.20001H7.20001L7.20001 5.16789C7.2 4.63519 7.19999 4.18757 7.22992 3.82127C7.26121 3.43829 7.32916 3.07433 7.50519 2.72884C7.77364 2.20199 8.20199 1.77364 8.72884 1.50519C9.07433 1.32916 9.43829 1.26121 9.82127 1.22992C10.1876 1.19999 10.6352 1.2 11.1679 1.20001ZM5.80001 6.80001V17.2C5.80001 18.0533 5.80063 18.6451 5.83823 19.1053C5.87506 19.556 5.94335 19.8095 6.0398 19.9988C6.25072 20.4128 6.58728 20.7493 7.00123 20.9602C7.19053 21.0567 7.44398 21.125 7.89476 21.1618C8.35489 21.1994 8.94673 21.2 9.80001 21.2H14.2C15.0533 21.2 15.6451 21.1994 16.1053 21.1618C16.556 21.125 16.8095 21.0567 16.9988 20.9602C17.4127 20.7493 17.7493 20.4128 17.9602 19.9988C18.0567 19.8095 18.125 19.556 18.1618 19.1053C18.1994 18.6451 18.2 18.0533 18.2 17.2V6.80001H5.80001ZM15.2 5.20001H8.80001C8.80001 4.62676 8.80063 4.24493 8.8246 3.95156C8.84781 3.66753 8.88885 3.53756 8.9308 3.45522C9.04585 3.22943 9.22943 3.04585 9.45522 2.93081C9.53756 2.88885 9.66753 2.84781 9.95156 2.8246C10.2449 2.80064 10.6268 2.80001 11.2 2.80001H12.8C13.3733 2.80001 13.7551 2.80064 14.0485 2.8246C14.3325 2.84781 14.4625 2.88885 14.5448 2.93081C14.7706 3.04585 14.9542 3.22943 15.0692 3.45522C15.1112 3.53756 15.1522 3.66753 15.1754 3.95156C15.1994 4.24493 15.2 4.62676 15.2 5.20001Z" fill="black"/>
</svg>
