<svg width="24" height="24" viewBox="0 0 24 24" fill="none" xmlns="http://www.w3.org/2000/svg">
<path fill-rule="evenodd" clip-rule="evenodd" d="M7.76601 2.20001H16.234C17.0452 2.2 17.7026 2.2 18.2356 2.24354C18.7853 2.28846 19.2727 2.38366 19.7252 2.61419C20.4402 2.97851 21.0215 3.55983 21.3858 4.27485C21.6164 4.72729 21.7116 5.21474 21.7565 5.76447C21.8 6.29743 21.8 6.95478 21.8 7.76599V16.234C21.8 17.0452 21.8 17.7026 21.7565 18.2356C21.7116 18.7853 21.6164 19.2727 21.3858 19.7252C21.0215 20.4402 20.4402 21.0215 19.7252 21.3858C19.2727 21.6164 18.7853 21.7116 18.2356 21.7565C17.7026 21.8 17.0452 21.8 16.234 21.8H7.76599C6.95478 21.8 6.29743 21.8 5.76447 21.7565C5.21474 21.7116 4.72729 21.6164 4.27485 21.3858C3.55983 21.0215 2.97851 20.4402 2.61419 19.7252C2.38366 19.2727 2.28846 18.7853 2.24354 18.2356C2.2 17.7026 2.2 17.0452 2.20001 16.234V7.76601C2.2 6.95479 2.2 6.29744 2.24354 5.76447C2.28846 5.21474 2.38366 4.72729 2.61419 4.27485C2.97851 3.55983 3.55983 2.97851 4.27485 2.61419C4.72729 2.38366 5.21474 2.28846 5.76447 2.24354C6.29744 2.2 6.95479 2.2 7.76601 2.20001ZM5.89476 3.83823C5.44398 3.87506 5.19053 3.94335 5.00123 4.0398C4.58728 4.25072 4.25072 4.58728 4.0398 5.00123C3.94335 5.19053 3.87506 5.44398 3.83823 5.89476C3.80063 6.35489 3.80001 6.94673 3.80001 7.80001V16.2C3.80001 17.0533 3.80063 17.6451 3.83823 18.1053C3.87506 18.556 3.94335 18.8095 4.0398 18.9988C4.25072 19.4127 4.58728 19.7493 5.00123 19.9602C5.19053 20.0567 5.44398 20.125 5.89476 20.1618C6.35489 20.1994 6.94673 20.2 7.80001 20.2H16.2C17.0533 20.2 17.6451 20.1994 18.1053 20.1618C18.556 20.125 18.8095 20.0567 18.9988 19.9602C19.4127 19.7493 19.7493 19.4127 19.9602 18.9988C20.0567 18.8095 20.125 18.556 20.1618 18.1053C20.1994 17.6451 20.2 17.0533 20.2 16.2V7.80001C20.2 6.94673 20.1994 6.35489 20.1618 5.89476C20.125 5.44398 20.0567 5.19053 19.9602 5.00123C19.7493 4.58728 19.4127 4.25072 18.9988 4.0398C18.8095 3.94335 18.556 3.87506 18.1053 3.83823C17.6451 3.80063 17.0533 3.80001 16.2 3.80001H7.80001C6.94673 3.80001 6.35489 3.80063 5.89476 3.83823ZM8.43433 8.43433C8.74675 8.12191 9.25328 8.12191 9.5657 8.43433L12 10.8686L14.4343 8.43433C14.7467 8.12191 15.2533 8.12191 15.5657 8.43433C15.8781 8.74675 15.8781 9.25328 15.5657 9.5657L13.1314 12L15.5657 14.4343C15.8781 14.7467 15.8781 15.2533 15.5657 15.5657C15.2533 15.8781 14.7467 15.8781 14.4343 15.5657L12 13.1314L9.5657 15.5657C9.25328 15.8781 8.74675 15.8781 8.43433 15.5657C8.12191 15.2533 8.12191 14.7467 8.43433 14.4343L10.8686 12L8.43433 9.5657C8.12191 9.25328 8.12191 8.74675 8.43433 8.43433Z" fill="black"/>
</svg>
