<svg width="24" height="24" viewBox="0 0 24 24" fill="none" xmlns="http://www.w3.org/2000/svg">
<path fill-rule="evenodd" clip-rule="evenodd" d="M6.23054 8.08931C4.70225 9.36483 3.6352 10.861 3.09653 11.714C3.02239 11.8313 2.99198 11.8807 2.97206 11.919C2.96307 11.9363 2.96054 11.9431 2.95885 11.9496C2.95865 11.9512 2.95839 11.9535 2.9581 11.9565C2.95706 11.9676 2.95626 11.9827 2.95626 12C2.95626 12.0172 2.95706 12.0323 2.9581 12.0434C2.95839 12.0464 2.95865 12.0487 2.95885 12.0503C2.96054 12.0568 2.96307 12.0636 2.97206 12.0809C2.99198 12.1192 3.02239 12.1686 3.09654 12.286C3.6352 13.1389 4.70225 14.6351 6.23054 15.9106C7.75694 17.1845 9.69525 18.2 12.0004 18.2C14.3056 18.2 16.2439 17.1845 17.7703 15.9106C19.2986 14.6351 20.3656 13.1389 20.9043 12.2859C20.9784 12.1686 21.0089 12.1192 21.0288 12.0809C21.0378 12.0636 21.0403 12.0568 21.042 12.0503C21.0422 12.0487 21.0424 12.0464 21.0427 12.0434C21.0438 12.0323 21.0446 12.0172 21.0446 12C21.0446 11.9827 21.0438 11.9676 21.0427 11.9565C21.0424 11.9535 21.0422 11.9512 21.042 11.9496C21.0403 11.9431 21.0378 11.9363 21.0288 11.919C21.0089 11.8807 20.9784 11.8313 20.9043 11.714C20.3656 10.861 19.2986 9.36483 17.7703 8.08931C16.2439 6.81535 14.3056 5.79995 12.0004 5.79995C9.69525 5.79995 7.75694 6.81535 6.23054 8.08931ZM5.20532 6.86093C6.91145 5.43697 9.20058 4.19995 12.0004 4.19995C14.8003 4.19995 17.0894 5.43697 18.7955 6.86093C20.4998 8.28332 21.6704 9.93055 22.2571 10.8596C22.2645 10.8713 22.272 10.8831 22.2796 10.8951C22.3979 11.0817 22.5336 11.2956 22.6029 11.5978C22.6585 11.8403 22.6585 12.1596 22.6029 12.4021C22.5336 12.7043 22.3979 12.9182 22.2796 13.1049C22.272 13.1168 22.2645 13.1286 22.2571 13.1403C21.6704 14.0694 20.4998 15.7166 18.7955 17.139C17.0894 18.5629 14.8003 19.8 12.0004 19.8C9.20058 19.8 6.91145 18.5629 5.20532 17.139C3.50106 15.7166 2.33047 14.0694 1.74373 13.1403C1.73633 13.1286 1.72884 13.1168 1.72128 13.1049C1.60288 12.9182 1.46723 12.7043 1.39796 12.4021C1.34236 12.1596 1.34236 11.8403 1.39796 11.5978C1.46723 11.2956 1.60288 11.0817 1.72128 10.8951C1.72884 10.8831 1.73633 10.8713 1.74373 10.8596C2.33047 9.93055 3.50106 8.28332 5.20532 6.86093ZM12.0004 9.79995C10.7854 9.79995 9.80042 10.7849 9.80042 12C9.80042 13.215 10.7854 14.2 12.0004 14.2C13.2154 14.2 14.2004 13.215 14.2004 12C14.2004 10.7849 13.2154 9.79995 12.0004 9.79995ZM8.20042 12C8.20042 9.90127 9.90173 8.19995 12.0004 8.19995C14.0991 8.19995 15.8004 9.90127 15.8004 12C15.8004 14.0986 14.0991 15.8 12.0004 15.8C9.90173 15.8 8.20042 14.0986 8.20042 12Z" fill="black"/>
</svg>
