<svg width="24" height="24" viewBox="0 0 24 24" fill="none" xmlns="http://www.w3.org/2000/svg">
<path fill-rule="evenodd" clip-rule="evenodd" d="M12 2.79995C6.91899 2.79995 2.80001 6.91893 2.80001 12C2.80001 17.081 6.91899 21.2 12 21.2C17.081 21.2 21.2 17.081 21.2 12C21.2 6.91893 17.081 2.79995 12 2.79995ZM1.20001 12C1.20001 6.03528 6.03534 1.19995 12 1.19995C17.9647 1.19995 22.8 6.03528 22.8 12C22.8 17.9646 17.9647 22.8 12 22.8C6.03534 22.8 1.20001 17.9646 1.20001 12ZM10.7 7.99995C10.7 7.28198 11.282 6.69995 12 6.69995C12.718 6.69995 13.3 7.28198 13.3 7.99995C13.3 8.71792 12.718 9.29995 12 9.29995C11.282 9.29995 10.7 8.71792 10.7 7.99995ZM6.20001 12C6.20001 11.5581 6.55818 11.2 7.00001 11.2H17C17.4418 11.2 17.8 11.5581 17.8 12C17.8 12.4418 17.4418 12.8 17 12.8H7.00001C6.55818 12.8 6.20001 12.4418 6.20001 12ZM10.7 16C10.7 15.282 11.282 14.7 12 14.7C12.718 14.7 13.3 15.282 13.3 16C13.3 16.7179 12.718 17.3 12 17.3C11.282 17.3 10.7 16.7179 10.7 16Z" fill="black"/>
</svg>
