<svg width="24" height="24" viewBox="0 0 24 24" fill="none" xmlns="http://www.w3.org/2000/svg">
<path fill-rule="evenodd" clip-rule="evenodd" d="M9.50001 3.79995C5.7997 3.79995 2.80001 6.79964 2.80001 10.5C2.80001 12.3459 3.54548 14.0162 4.75368 15.2288C5.06553 15.5418 5.0646 16.0484 4.75161 16.3602C4.43862 16.6721 3.93209 16.6711 3.62024 16.3581C2.12544 14.8579 1.20001 12.7862 1.20001 10.5C1.20001 5.91599 4.91605 2.19995 9.50001 2.19995C12.5114 2.19995 15.1472 3.80408 16.6011 6.20075C20.0339 6.25473 22.8 9.05431 22.8 12.5C22.8 14.4566 21.9071 16.2054 20.5094 17.3596C20.1688 17.641 19.6645 17.5929 19.3832 17.2522C19.1018 16.9115 19.1499 16.4073 19.4906 16.126C20.536 15.2626 21.2 13.9592 21.2 12.5C21.2 9.90421 19.0958 7.79995 16.5 7.79995C16.0053 7.79995 15.5352 7.54221 15.2769 7.10385C14.1107 5.1249 11.9597 3.79995 9.50001 3.79995ZM12 11.2C12.4418 11.2 12.8 11.5581 12.8 12V19.0686L15.4343 16.4343C15.7467 16.1218 16.2533 16.1218 16.5657 16.4343C16.8781 16.7467 16.8781 17.2532 16.5657 17.5656L12.5657 21.5656C12.2533 21.8781 11.7467 21.8781 11.4343 21.5656L7.43433 17.5656C7.12191 17.2532 7.12191 16.7467 7.43433 16.4343C7.74675 16.1218 8.25328 16.1218 8.5657 16.4343L11.2 19.0686V12C11.2 11.5581 11.5582 11.2 12 11.2Z" fill="black"/>
</svg>
