<svg width="24" height="24" viewBox="0 0 24 24" fill="none" xmlns="http://www.w3.org/2000/svg">
<path fill-rule="evenodd" clip-rule="evenodd" d="M16.4343 2.43432C17.8513 1.01733 20.1487 1.01734 21.5657 2.43432C22.9827 3.85131 22.9827 6.14871 21.5657 7.5657L18.5681 10.5632C18.5673 10.5641 18.5665 10.5649 18.5657 10.5657C18.5649 10.5665 18.5641 10.5673 18.5632 10.5681L8.3594 20.772C8.34427 20.7871 8.32933 20.8021 8.31456 20.8168C8.06418 21.0675 7.86225 21.2697 7.62328 21.4272C7.41266 21.5661 7.18424 21.6759 6.94422 21.7536C6.6719 21.8418 6.3879 21.8732 6.03575 21.9121C6.01498 21.9144 5.99396 21.9167 5.9727 21.9191L2.58833 22.2951C2.34679 22.322 2.10615 22.2375 1.9343 22.0657C1.76246 21.8938 1.67804 21.6532 1.70488 21.4117L2.08092 18.0273C2.08328 18.006 2.08561 17.985 2.0879 17.9642C2.12683 17.6121 2.15823 17.3281 2.24639 17.0558C2.32409 16.8157 2.43388 16.5873 2.57276 16.3767C2.73035 16.1377 2.93251 15.9358 3.18317 15.6854C3.19796 15.6707 3.21291 15.6557 3.22803 15.6406L16.4343 2.43432ZM14 7.13138L4.3594 16.772C4.04256 17.0888 3.96524 17.1715 3.90849 17.2575C3.84896 17.3478 3.80191 17.4457 3.76861 17.5486C3.73686 17.6466 3.72062 17.7586 3.67113 18.204L3.40553 20.5945L5.79601 20.3289C6.24135 20.2794 6.35335 20.2631 6.45144 20.2314C6.55431 20.1981 6.6522 20.151 6.74247 20.0915C6.82854 20.0348 6.91119 19.9574 7.22803 19.6406L16.8686 10L14 7.13138ZM18 8.86864L15.1314 6.00001L17.5657 3.56569C18.3578 2.77354 19.6422 2.77354 20.4343 3.56569C21.2265 4.35785 21.2265 5.64218 20.4343 6.43433L18 8.86864Z" fill="black"/>
</svg>
