<svg width="24" height="24" viewBox="0 0 24 24" fill="none" xmlns="http://www.w3.org/2000/svg">
<path fill-rule="evenodd" clip-rule="evenodd" d="M3.20001 12C3.20001 11.0058 4.0059 10.2 5.00001 10.2C5.99412 10.2 6.80001 11.0058 6.80001 12C6.80001 12.9941 5.99412 13.8 5.00001 13.8C4.0059 13.8 3.20001 12.9941 3.20001 12ZM10.2 12C10.2 11.0058 11.0059 10.2 12 10.2C12.9941 10.2 13.8 11.0058 13.8 12C13.8 12.9941 12.9941 13.8 12 13.8C11.0059 13.8 10.2 12.9941 10.2 12ZM17.2 12C17.2 11.0058 18.0059 10.2 19 10.2C19.9941 10.2 20.8 11.0058 20.8 12C20.8 12.9941 19.9941 13.8 19 13.8C18.0059 13.8 17.2 12.9941 17.2 12Z" fill="black"/>
</svg>
