<svg width="24" height="24" viewBox="0 0 24 24" fill="none" xmlns="http://www.w3.org/2000/svg">
<path fill-rule="evenodd" clip-rule="evenodd" d="M19.8671 5.26385L11.4343 13.6966L14.0008 20.2961L19.8671 5.26385ZM10.303 12.5652L18.7357 4.13248L3.70342 9.99874L10.303 12.5652ZM20.703 1.66622C20.8807 1.61461 21.1974 1.53574 21.5312 1.64725C21.9187 1.77671 22.2229 2.08083 22.3523 2.46835C22.4638 2.80213 22.385 3.11891 22.3333 3.29661C22.2779 3.48735 22.1881 3.7176 22.0932 3.96052L15.4795 20.9082C15.3737 21.1795 15.2757 21.4305 15.1811 21.6219C15.0971 21.7917 14.9312 22.104 14.5997 22.2762C14.2235 22.4716 13.7756 22.4714 13.3997 22.2755C13.0683 22.1029 12.9028 21.7904 12.819 21.6205C12.7246 21.429 12.627 21.1779 12.5214 20.9065L9.88151 14.1181L3.12351 11.4899L3.09316 11.4781C2.82173 11.3726 2.57061 11.275 2.37909 11.1806C2.20919 11.0968 1.89671 10.9313 1.72406 10.5999C1.52818 10.2239 1.52792 9.77609 1.72336 9.39991C1.89562 9.06833 2.2079 8.90243 2.3777 8.81847C2.5691 8.72383 2.82009 8.62591 3.09138 8.52007L20.0391 1.90633C20.282 1.8115 20.5122 1.72163 20.703 1.66622Z" fill="black"/>
</svg>
