<svg width="24" height="24" viewBox="0 0 24 24" fill="none" xmlns="http://www.w3.org/2000/svg">
<path fill-rule="evenodd" clip-rule="evenodd" d="M12 2.80001C6.91899 2.80001 2.80001 6.91899 2.80001 12C2.80001 17.081 6.91899 21.2 12 21.2C17.081 21.2 21.2 17.081 21.2 12C21.2 6.91899 17.081 2.80001 12 2.80001ZM1.20001 12C1.20001 6.03534 6.03534 1.20001 12 1.20001C17.9647 1.20001 22.8 6.03534 22.8 12C22.8 17.9647 17.9647 22.8 12 22.8C6.03534 22.8 1.20001 17.9647 1.20001 12ZM11.2 8.00001C11.2 7.55818 11.5582 7.20001 12 7.20001H12.01C12.4518 7.20001 12.81 7.55818 12.81 8.00001C12.81 8.44184 12.4518 8.80001 12.01 8.80001H12C11.5582 8.80001 11.2 8.44184 11.2 8.00001ZM12 11.2C12.4418 11.2 12.8 11.5582 12.8 12V16C12.8 16.4418 12.4418 16.8 12 16.8C11.5582 16.8 11.2 16.4418 11.2 16V12C11.2 11.5582 11.5582 11.2 12 11.2Z" fill="black"/>
</svg>
