<svg width="24" height="24" viewBox="0 0 24 24" fill="none" xmlns="http://www.w3.org/2000/svg">
<path fill-rule="evenodd" clip-rule="evenodd" d="M10 3.80001C6.57585 3.80001 3.80001 6.57585 3.80001 10C3.80001 13.4242 6.57585 16.2 10 16.2C13.4242 16.2 16.2 13.4242 16.2 10C16.2 6.57585 13.4242 3.80001 10 3.80001ZM2.20001 10C2.20001 5.69219 5.69219 2.20001 10 2.20001C14.3078 2.20001 17.8 5.69219 17.8 10C17.8 11.8658 17.1449 13.5785 16.0523 14.9208L21.5657 20.4343C21.8781 20.7468 21.8781 21.2533 21.5657 21.5657C21.2533 21.8781 20.7467 21.8781 20.4343 21.5657L14.9209 16.0522C13.5786 17.1449 11.8658 17.8 10 17.8C5.69219 17.8 2.20001 14.3078 2.20001 10Z" fill="black"/>
</svg>
