<svg width="24" height="24" viewBox="0 0 24 24" fill="none" xmlns="http://www.w3.org/2000/svg">
<path fill-rule="evenodd" clip-rule="evenodd" d="M5.41134 9.31201C6.16231 6.37289 8.82672 4.19995 12 4.19995C15.1733 4.19995 17.8377 6.37289 18.5887 9.31201C20.9939 9.81439 22.8 11.9458 22.8 14.5C22.8 17.4271 20.4271 19.8 17.5 19.8H6.50001C3.5729 19.8 1.20001 17.4271 1.20001 14.5C1.20001 11.9458 3.00616 9.81439 5.41134 9.31201ZM12 5.79995C9.41834 5.79995 7.27472 7.68212 6.86916 10.1491C6.81011 10.5083 6.516 10.7823 6.15353 10.8159C4.27294 10.9901 2.80001 12.5735 2.80001 14.5C2.80001 16.5434 4.45656 18.2 6.50001 18.2H17.5C19.5435 18.2 21.2 16.5434 21.2 14.5C21.2 12.5735 19.7271 10.9901 17.8465 10.8159C17.484 10.7823 17.1899 10.5083 17.1309 10.1491C16.7253 7.68212 14.5817 5.79995 12 5.79995Z" fill="black"/>
</svg>
