<svg width="24" height="24" viewBox="0 0 24 24" fill="none" xmlns="http://www.w3.org/2000/svg">
<path fill-rule="evenodd" clip-rule="evenodd" d="M7.76602 2.19995L9.00001 2.19995C9.44184 2.19995 9.80001 2.55812 9.80001 2.99995C9.80001 3.44178 9.44184 3.79995 9.00001 3.79995H7.80001C6.94673 3.79995 6.35489 3.80057 5.89476 3.83817C5.44398 3.875 5.19053 3.94329 5.00123 4.03974C4.58728 4.25066 4.25072 4.58722 4.0398 5.00117C3.94335 5.19047 3.87506 5.44392 3.83823 5.8947C3.80063 6.35483 3.80001 6.94667 3.80001 7.79995V16.2C3.80001 17.0532 3.80063 17.6451 3.83823 18.1052C3.87506 18.556 3.94335 18.8094 4.0398 18.9987C4.25072 19.4127 4.58728 19.7492 5.00123 19.9602C5.19053 20.0566 5.44398 20.1249 5.89476 20.1617C6.35489 20.1993 6.94673 20.2 7.80001 20.2H9.00001C9.44184 20.2 9.80001 20.5581 9.80001 21C9.80001 21.4418 9.44184 21.8 9.00001 21.8H7.76599C6.95478 21.8 6.29743 21.8 5.76447 21.7564C5.21474 21.7115 4.72729 21.6163 4.27485 21.3858C3.55983 21.0215 2.97851 20.4401 2.61419 19.7251C2.38366 19.2727 2.28846 18.7852 2.24354 18.2355C2.2 17.7025 2.2 17.0452 2.20001 16.2339V7.76595C2.2 6.95473 2.2 6.29738 2.24354 5.76441C2.28846 5.21468 2.38366 4.72723 2.61419 4.27479C2.97851 3.55977 3.55983 2.97845 4.27485 2.61413C4.72729 2.3836 5.21474 2.2884 5.76447 2.24348C6.29744 2.19994 6.95479 2.19994 7.76602 2.19995ZM15.4343 6.43427C15.7467 6.12185 16.2533 6.12185 16.5657 6.43427L21.5657 11.4343C21.8781 11.7467 21.8781 12.2532 21.5657 12.5656L16.5657 17.5656C16.2533 17.8781 15.7467 17.8781 15.4343 17.5656C15.1219 17.2532 15.1219 16.7467 15.4343 16.4343L19.0686 12.8H9.00001C8.55819 12.8 8.20001 12.4418 8.20001 12C8.20001 11.5581 8.55819 11.2 9.00001 11.2H19.0686L15.4343 7.56564C15.1219 7.25322 15.1219 6.74669 15.4343 6.43427Z" fill="black"/>
</svg>
