<svg width="24" height="24" viewBox="0 0 24 24" fill="none" xmlns="http://www.w3.org/2000/svg">
<path fill-rule="evenodd" clip-rule="evenodd" d="M12.1419 3.65606C14.4069 1.39102 18.0793 1.39101 20.3443 3.65606C22.6094 5.9211 22.6094 9.59345 20.3443 11.8585L18.9301 13.2727C18.6177 13.5851 18.1112 13.5851 17.7987 13.2727C17.4863 12.9603 17.4863 12.4538 17.7987 12.1413L19.213 10.7271C20.8532 9.08692 20.8532 6.42763 19.213 4.78743C17.5728 3.14722 14.9135 3.14722 13.2733 4.78743L11.859 6.20164C11.5466 6.51406 11.0401 6.51406 10.7277 6.20164C10.4153 5.88922 10.4153 5.38269 10.7277 5.07027L12.1419 3.65606ZM16.0661 7.93421C16.3786 8.24663 16.3786 8.75316 16.0661 9.06558L9.06615 16.0656C8.75373 16.378 8.2472 16.378 7.93478 16.0656C7.62236 15.7532 7.62236 15.2466 7.93478 14.9342L14.9348 7.93421C15.2472 7.62179 15.7537 7.62179 16.0661 7.93421ZM6.20219 10.7271C6.51461 11.0395 6.51461 11.5461 6.20219 11.8585L4.78798 13.2727C3.14777 14.9129 3.14777 17.5722 4.78798 19.2124C6.42818 20.8526 9.08747 20.8526 10.7277 19.2124L12.1419 17.7982C12.4543 17.4858 12.9608 17.4858 13.2733 17.7982C13.5857 18.1106 13.5857 18.6171 13.2733 18.9296L11.859 20.3438C9.594 22.6088 5.92165 22.6088 3.65661 20.3438C1.39156 18.0787 1.39156 14.4064 3.65661 12.1413L5.07082 10.7271C5.38324 10.4147 5.88977 10.4147 6.20219 10.7271Z" fill="black"/>
</svg>
