<svg width="24" height="24" viewBox="0 0 24 24" fill="none" xmlns="http://www.w3.org/2000/svg">
<path fill-rule="evenodd" clip-rule="evenodd" d="M8.00001 2.20001C8.44183 2.20001 8.80001 2.55818 8.80001 3.00001V4.20001H14C14.4418 4.20001 14.8 4.55818 14.8 5.00001C14.8 5.44184 14.4418 5.80001 14 5.80001H12.1654C11.6519 8.3342 10.6684 10.6646 9.28386 12.6959C9.63484 12.9232 9.98612 13.1167 10.3279 13.2703C10.7309 13.4513 10.9108 13.9248 10.7297 14.3279C10.5487 14.7309 10.0752 14.9108 9.67216 14.7297C9.21856 14.526 8.76491 14.2718 8.32309 13.9792C6.71489 15.9393 4.69829 17.5524 2.35603 18.7164C1.96037 18.913 1.48022 18.7517 1.28359 18.356C1.08697 17.9604 1.24832 17.4802 1.64398 17.2836C3.76784 16.2281 5.59365 14.7716 7.05253 13.0052C5.87115 11.9683 4.83348 10.6614 4.26308 9.31137C4.09112 8.90437 4.28166 8.43504 4.68865 8.26309C5.09564 8.09113 5.56497 8.28166 5.73693 8.68866C6.18093 9.73953 7.01687 10.8236 8.01328 11.7187C9.19085 9.97029 10.049 7.97486 10.53 5.80001H2.00001C1.55818 5.80001 1.20001 5.44184 1.20001 5.00001C1.20001 4.55818 1.55818 4.20001 2.00001 4.20001H7.20001V3.00001C7.20001 2.55818 7.55818 2.20001 8.00001 2.20001ZM15.9347 9.48823C16.2918 9.31576 16.7082 9.31576 17.0653 9.48823C17.3679 9.63434 17.537 9.89152 17.6298 10.0474C17.7261 10.2094 17.8263 10.4188 17.9301 10.6359L22.7217 20.6548C22.9123 21.0534 22.7438 21.5311 22.3452 21.7217C21.9466 21.9123 21.4689 21.7438 21.2783 21.3452L19.5828 17.8H13.4172L11.7217 21.3452C11.5311 21.7438 11.0534 21.9123 10.6548 21.7217C10.2563 21.5311 10.0877 21.0534 10.2783 20.6548L15.07 10.6359C15.1737 10.4188 15.2739 10.2094 15.3702 10.0474C15.463 9.89152 15.6321 9.63434 15.9347 9.48823ZM14.1824 16.2H18.8176L16.5 11.3542L14.1824 16.2Z" fill="black"/>
</svg>
