<svg width="24" height="24" viewBox="0 0 24 24" fill="none" xmlns="http://www.w3.org/2000/svg">
<path fill-rule="evenodd" clip-rule="evenodd" d="M22.8 12C22.8 15.2032 20.2032 17.8 17 17.8L6.99999 17.8C3.79674 17.8 1.19999 15.2032 1.19999 12C1.19999 8.79673 3.79674 6.19999 6.99999 6.19999L17 6.19999C20.2032 6.19999 22.8 8.79674 22.8 12ZM13 7.79999L6.99999 7.79999C4.68039 7.79999 2.79999 9.68039 2.79999 12C2.79999 14.3196 4.68039 16.2 6.99999 16.2L13 16.2C11.8911 15.1436 11.2 13.6525 11.2 12C11.2 10.3475 11.8911 8.85641 13 7.79999ZM17 16.2C19.3196 16.2 21.2 14.3196 21.2 12C21.2 9.68039 19.3196 7.79999 17 7.79999C14.6804 7.79999 12.8 9.68039 12.8 12C12.8 14.3196 14.6804 16.2 17 16.2Z" fill="black"/>
</svg>
