<svg width="24" height="24" viewBox="0 0 24 24" fill="none" xmlns="http://www.w3.org/2000/svg">
<path fill-rule="evenodd" clip-rule="evenodd" d="M12 2.80001C6.91899 2.80001 2.80001 6.91899 2.80001 12C2.80001 17.081 6.91899 21.2 12 21.2C17.081 21.2 21.2 17.081 21.2 12C21.2 6.91899 17.081 2.80001 12 2.80001ZM1.20001 12C1.20001 6.03534 6.03534 1.20001 12 1.20001C17.9647 1.20001 22.8 6.03534 22.8 12C22.8 17.9647 17.9647 22.8 12 22.8C6.03534 22.8 1.20001 17.9647 1.20001 12ZM8.43433 8.43433C8.74675 8.12191 9.25328 8.12191 9.5657 8.43433L12 10.8686L14.4343 8.43433C14.7467 8.12191 15.2533 8.12191 15.5657 8.43433C15.8781 8.74675 15.8781 9.25328 15.5657 9.5657L13.1314 12L15.5657 14.4343C15.8781 14.7467 15.8781 15.2533 15.5657 15.5657C15.2533 15.8781 14.7467 15.8781 14.4343 15.5657L12 13.1314L9.5657 15.5657C9.25328 15.8781 8.74675 15.8781 8.43433 15.5657C8.12191 15.2533 8.12191 14.7467 8.43433 14.4343L10.8686 12L8.43433 9.5657C8.12191 9.25328 8.12191 8.74675 8.43433 8.43433Z" fill="black"/>
</svg>
