<svg width="24" height="24" viewBox="0 0 24 24" fill="none" xmlns="http://www.w3.org/2000/svg">
<path fill-rule="evenodd" clip-rule="evenodd" d="M3.06472 9.80001C2.89174 10.5049 2.80001 11.2418 2.80001 12C2.80001 12.7583 2.89174 13.4951 3.06472 14.2H7.39488C7.28102 13.4811 7.2155 12.7518 7.20019 12.0167C7.19995 12.0056 7.19995 11.9945 7.20019 11.9833C7.2155 11.2483 7.28102 10.5189 7.39488 9.80001H3.06472ZM3.61899 8.20001H7.7324C8.22686 6.33158 9.0552 4.56203 10.1821 2.97959C7.25135 3.56699 4.82382 5.54696 3.61899 8.20001ZM12 3.22828C10.8099 4.70712 9.92787 6.39778 9.39393 8.20001H14.6061C14.0722 6.39778 13.1901 4.70712 12 3.22828ZM14.9829 9.80001H9.01708C8.88958 10.5229 8.8165 11.2582 8.8002 12C8.8165 12.7419 8.88958 13.4772 9.01708 14.2H14.9829C15.1104 13.4772 15.1835 12.7419 15.1998 12C15.1835 11.2582 15.1104 10.5229 14.9829 9.80001ZM16.6051 14.2C16.719 13.4811 16.7845 12.7518 16.7998 12.0167C16.8001 12.0056 16.8001 11.9945 16.7998 11.9833C16.7845 11.2483 16.719 10.5189 16.6051 9.80001H20.9353C21.1083 10.5049 21.2 11.2418 21.2 12C21.2 12.7583 21.1083 13.4951 20.9353 14.2H16.6051ZM14.6061 15.8H9.39393C9.92787 17.6022 10.8099 19.2929 12 20.7717C13.1901 19.2929 14.0722 17.6022 14.6061 15.8ZM10.1821 21.0204C9.05519 19.438 8.22686 17.6684 7.7324 15.8H3.61899C4.82382 18.4531 7.25135 20.433 10.1821 21.0204ZM13.8179 21.0204C14.9448 19.438 15.7732 17.6684 16.2676 15.8H20.381C19.1762 18.4531 16.7487 20.433 13.8179 21.0204ZM20.381 8.20001H16.2676C15.7732 6.33158 14.9448 4.56203 13.8179 2.97959C16.7487 3.56699 19.1762 5.54696 20.381 8.20001ZM1.20001 12C1.20001 6.03534 6.03534 1.20001 12 1.20001C17.9647 1.20001 22.8 6.03534 22.8 12C22.8 17.9647 17.9647 22.8 12 22.8C6.03534 22.8 1.20001 17.9647 1.20001 12Z" fill="black"/>
</svg>
