<svg width="24" height="24" viewBox="0 0 24 24" fill="none" xmlns="http://www.w3.org/2000/svg">
<path fill-rule="evenodd" clip-rule="evenodd" d="M5.16789 1.20001L12.0267 1.20001C12.4699 1.2 12.8424 1.2 13.1488 1.2209C13.4684 1.24271 13.774 1.28992 14.0715 1.41315C14.7576 1.69733 15.3027 2.24242 15.5869 2.9285C15.7101 3.226 15.7573 3.5316 15.7791 3.85124C15.8 4.15758 15.8 4.5301 15.8 4.97335V5.00001C15.8 5.44184 15.4418 5.80001 15 5.80001C14.5582 5.80001 14.2 5.44184 14.2 5.00001C14.2 4.52313 14.1996 4.20553 14.1828 3.96016C14.1666 3.72198 14.1377 3.61084 14.1087 3.54079C13.9869 3.24676 13.7533 3.01315 13.4592 2.89136C13.3892 2.86234 13.278 2.83344 13.0399 2.81719C12.7945 2.80045 12.4769 2.80001 12 2.80001H5.20001C4.62676 2.80001 4.24493 2.80064 3.95156 2.8246C3.66753 2.84781 3.53756 2.88885 3.45522 2.93081C3.22943 3.04585 3.04585 3.22943 2.93081 3.45522C2.88885 3.53756 2.84781 3.66753 2.8246 3.95156C2.80064 4.24493 2.80001 4.62676 2.80001 5.20001V12C2.80001 12.4769 2.80045 12.7945 2.81719 13.0399C2.83344 13.278 2.86234 13.3892 2.89136 13.4592C3.01315 13.7533 3.24676 13.9869 3.54079 14.1087C3.61084 14.1377 3.72198 14.1666 3.96016 14.1828C4.20553 14.1996 4.52313 14.2 5.00001 14.2C5.44184 14.2 5.80001 14.5582 5.80001 15C5.80001 15.4418 5.44184 15.8 5.00001 15.8H4.97335C4.5301 15.8 4.15758 15.8 3.85124 15.7791C3.5316 15.7573 3.226 15.7101 2.9285 15.5869C2.24242 15.3027 1.69733 14.7576 1.41315 14.0715C1.28992 13.774 1.24271 13.4684 1.2209 13.1488C1.2 12.8424 1.2 12.4699 1.20001 12.0267L1.20001 5.16789C1.2 4.63519 1.19999 4.18757 1.22992 3.82127C1.26121 3.43829 1.32916 3.07433 1.50519 2.72884C1.77364 2.20199 2.20199 1.77364 2.72884 1.50519C3.07433 1.32916 3.43829 1.26121 3.82127 1.22992C4.18757 1.19999 4.63519 1.2 5.16789 1.20001ZM12.1679 8.20001H18.8321C19.3648 8.2 19.8125 8.19999 20.1788 8.22992C20.5617 8.26121 20.9257 8.32916 21.2712 8.5052C21.798 8.77364 22.2264 9.20199 22.4948 9.72884C22.6709 10.0743 22.7388 10.4383 22.7701 10.8213C22.8 11.1876 22.8 11.6352 22.8 12.1679V18.8322C22.8 19.3648 22.8 19.8125 22.7701 20.1788C22.7388 20.5617 22.6709 20.9257 22.4948 21.2712C22.2264 21.798 21.798 22.2264 21.2712 22.4948C20.9257 22.6709 20.5617 22.7388 20.1788 22.7701C19.8125 22.8 19.3648 22.8 18.8322 22.8H12.1679C11.6352 22.8 11.1876 22.8 10.8213 22.7701C10.4383 22.7388 10.0743 22.6709 9.72884 22.4948C9.20199 22.2264 8.77364 21.798 8.5052 21.2712C8.32916 20.9257 8.26121 20.5617 8.22992 20.1788C8.19999 19.8125 8.2 19.3648 8.20001 18.8321V12.1679C8.2 11.6352 8.19999 11.1876 8.22992 10.8213C8.26121 10.4383 8.32916 10.0743 8.5052 9.72884C8.77364 9.20199 9.20199 8.77364 9.72884 8.5052C10.0743 8.32916 10.4383 8.26121 10.8213 8.22992C11.1876 8.19999 11.6352 8.2 12.1679 8.20001ZM10.9516 9.8246C10.6675 9.84781 10.5376 9.88885 10.4552 9.93081C10.2294 10.0459 10.0459 10.2294 9.93081 10.4552C9.88885 10.5376 9.84781 10.6675 9.8246 10.9516C9.80064 11.2449 9.80001 11.6268 9.80001 12.2V18.8C9.80001 19.3733 9.80064 19.7551 9.8246 20.0485C9.84781 20.3325 9.88885 20.4625 9.93081 20.5448C10.0459 20.7706 10.2294 20.9542 10.4552 21.0692C10.5376 21.1112 10.6675 21.1522 10.9516 21.1754C11.2449 21.1994 11.6268 21.2 12.2 21.2H18.8C19.3733 21.2 19.7551 21.1994 20.0485 21.1754C20.3325 21.1522 20.4625 21.1112 20.5448 21.0692C20.7706 20.9542 20.9542 20.7706 21.0692 20.5448C21.1112 20.4625 21.1522 20.3325 21.1754 20.0485C21.1994 19.7551 21.2 19.3733 21.2 18.8V12.2C21.2 11.6268 21.1994 11.2449 21.1754 10.9516C21.1522 10.6675 21.1112 10.5376 21.0692 10.4552C20.9542 10.2294 20.7706 10.0459 20.5448 9.93081C20.4625 9.88885 20.3325 9.84781 20.0485 9.8246C19.7551 9.80064 19.3733 9.80001 18.8 9.80001H12.2C11.6268 9.80001 11.2449 9.80064 10.9516 9.8246Z" fill="black"/>
</svg>
