<svg width="24" height="24" viewBox="0 0 24 24" fill="none" xmlns="http://www.w3.org/2000/svg">
<path fill-rule="evenodd" clip-rule="evenodd" d="M9.00001 1.19995C9.44184 1.19995 9.80001 1.55812 9.80001 1.99995V3.99995C9.80001 4.44178 9.44184 4.79995 9.00001 4.79995C8.55818 4.79995 8.20001 4.44178 8.20001 3.99995V1.99995C8.20001 1.55812 8.55818 1.19995 9.00001 1.19995ZM13.5556 3.65609C15.4302 1.78158 18.4694 1.78157 20.3439 3.65609C22.2184 5.53061 22.2184 8.5698 20.3439 10.4443L18.2226 12.5656C17.9101 12.8781 17.4036 12.8781 17.0912 12.5656C16.7788 12.2532 16.7788 11.7467 17.0912 11.4343L19.2125 9.31295C20.4622 8.06327 20.4622 6.03714 19.2125 4.78746C17.9628 3.53778 15.9367 3.53778 14.687 4.78746L12.5657 6.90878C12.2533 7.2212 11.7467 7.2212 11.4343 6.90878C11.1219 6.59636 11.1219 6.08983 11.4343 5.77741L13.5556 3.65609ZM2.93433 2.93427C3.24675 2.62185 3.75328 2.62185 4.0657 2.93427L5.47991 4.34848C5.79233 4.6609 5.79233 5.16743 5.47991 5.47985C5.16749 5.79227 4.66096 5.79227 4.34854 5.47985L2.93433 4.06564C2.62191 3.75322 2.62191 3.24669 2.93433 2.93427ZM1.20001 8.99995C1.20001 8.55812 1.55818 8.19995 2.00001 8.19995H4.00001C4.44184 8.19995 4.80001 8.55812 4.80001 8.99995C4.80001 9.44178 4.44184 9.79995 4.00001 9.79995H2.00001C1.55818 9.79995 1.20001 9.44178 1.20001 8.99995ZM6.90884 11.4343C7.22126 11.7467 7.22126 12.2532 6.90884 12.5656L4.78752 14.687C3.53785 15.9366 3.53785 17.9628 4.78752 19.2124C6.0372 20.4621 8.06333 20.4621 9.31301 19.2124L11.4343 17.0911C11.7467 16.7787 12.2533 16.7787 12.5657 17.0911C12.8781 17.4035 12.8781 17.9101 12.5657 18.2225L10.4444 20.3438C8.56986 22.2183 5.53067 22.2183 3.65615 20.3438C1.78164 18.4693 1.78164 15.4301 3.65615 13.5556L5.77747 11.4343C6.08989 11.1218 6.59642 11.1218 6.90884 11.4343ZM19.2 15C19.2 14.5581 19.5582 14.2 20 14.2H22C22.4418 14.2 22.8 14.5581 22.8 15C22.8 15.4418 22.4418 15.8 22 15.8H20C19.5582 15.8 19.2 15.4418 19.2 15ZM18.5201 18.5201C18.8325 18.2076 19.3391 18.2076 19.6515 18.5201L21.0657 19.9343C21.3781 20.2467 21.3781 20.7532 21.0657 21.0656C20.7533 21.3781 20.2467 21.3781 19.9343 21.0656L18.5201 19.6514C18.2077 19.339 18.2077 18.8325 18.5201 18.5201ZM15 19.2C15.4418 19.2 15.8 19.5581 15.8 20V22C15.8 22.4418 15.4418 22.8 15 22.8C14.5582 22.8 14.2 22.4418 14.2 22V20C14.2 19.5581 14.5582 19.2 15 19.2Z" fill="black"/>
</svg>
