<svg width="24" height="24" viewBox="0 0 24 24" fill="none" xmlns="http://www.w3.org/2000/svg">
<path fill-rule="evenodd" clip-rule="evenodd" d="M12 1.45001C12.4418 1.45001 12.8 1.80818 12.8 2.25001V4.75001C12.8 5.19184 12.4418 5.55001 12 5.55001C11.5582 5.55001 11.2 5.19184 11.2 4.75001V2.25001C11.2 1.80818 11.5582 1.45001 12 1.45001ZM4.56301 4.64301C4.87543 4.33059 5.38196 4.33059 5.69438 4.64301L7.8157 6.76433C8.12812 7.07675 8.12812 7.58328 7.8157 7.8957C7.50328 8.20812 6.99675 8.20812 6.68433 7.8957L4.56301 5.77438C4.25059 5.46196 4.25059 4.95543 4.56301 4.64301ZM19.2299 4.85011C19.5423 5.16253 19.5423 5.66906 19.2299 5.98148L17.8157 7.3957C17.5033 7.70812 16.9967 7.70812 16.6843 7.3957C16.3719 7.08328 16.3719 6.57675 16.6843 6.26433L18.0985 4.85011C18.411 4.53769 18.9175 4.53769 19.2299 4.85011ZM1.45001 12C1.45001 11.5582 1.80818 11.2 2.25001 11.2H5.75001C6.19184 11.2 6.55001 11.5582 6.55001 12C6.55001 12.4418 6.19184 12.8 5.75001 12.8H2.25001C1.80818 12.8 1.45001 12.4418 1.45001 12ZM18.95 12C18.95 11.5582 19.3082 11.2 19.75 11.2H21.25C21.6918 11.2 22.05 11.5582 22.05 12C22.05 12.4418 21.6918 12.8 21.25 12.8H19.75C19.3082 12.8 18.95 12.4418 18.95 12ZM8.3157 15.6843C8.62812 15.9967 8.62812 16.5033 8.3157 16.8157L5.48727 19.6441C5.17485 19.9565 4.66832 19.9565 4.3559 19.6441C4.04348 19.3317 4.04348 18.8252 4.3559 18.5128L7.18433 15.6843C7.49675 15.3719 8.00328 15.3719 8.3157 15.6843ZM17.1843 17.1843C17.4967 16.8719 18.0033 16.8719 18.3157 17.1843L19.0228 17.8914C19.3352 18.2039 19.3352 18.7104 19.0228 19.0228C18.7104 19.3352 18.2039 19.3352 17.8914 19.0228L17.1843 18.3157C16.8719 18.0033 16.8719 17.4967 17.1843 17.1843ZM12 17.2C12.4418 17.2 12.8 17.5582 12.8 18V22C12.8 22.4418 12.4418 22.8 12 22.8C11.5582 22.8 11.2 22.4418 11.2 22V18C11.2 17.5582 11.5582 17.2 12 17.2Z" fill="black"/>
</svg>
