<svg width="24" height="24" viewBox="0 0 24 24" fill="none" xmlns="http://www.w3.org/2000/svg">
<path fill-rule="evenodd" clip-rule="evenodd" d="M19.5657 4.43427C19.8781 4.74669 19.8781 5.25322 19.5657 5.56564L5.5657 19.5656C5.25328 19.8781 4.74675 19.8781 4.43433 19.5656C4.12191 19.2532 4.12191 18.7467 4.43433 18.4343L18.4343 4.43427C18.7467 4.12185 19.2533 4.12185 19.5657 4.43427ZM6.50001 6.29995C6.38956 6.29995 6.30001 6.38949 6.30001 6.49995C6.30001 6.61041 6.38956 6.69995 6.50001 6.69995C6.61047 6.69995 6.70001 6.61041 6.70001 6.49995C6.70001 6.38949 6.61047 6.29995 6.50001 6.29995ZM4.70001 6.49995C4.70001 5.50584 5.5059 4.69995 6.50001 4.69995C7.49412 4.69995 8.30001 5.50584 8.30001 6.49995C8.30001 7.49406 7.49412 8.29995 6.50001 8.29995C5.5059 8.29995 4.70001 7.49406 4.70001 6.49995ZM17.5 17.3C17.3896 17.3 17.3 17.3895 17.3 17.5C17.3 17.6104 17.3896 17.7 17.5 17.7C17.6105 17.7 17.7 17.6104 17.7 17.5C17.7 17.3895 17.6105 17.3 17.5 17.3ZM15.7 17.5C15.7 16.5058 16.5059 15.7 17.5 15.7C18.4941 15.7 19.3 16.5058 19.3 17.5C19.3 18.4941 18.4941 19.3 17.5 19.3C16.5059 19.3 15.7 18.4941 15.7 17.5Z" fill="black"/>
</svg>
