<svg width="24" height="24" viewBox="0 0 24 24" fill="none" xmlns="http://www.w3.org/2000/svg">
<path fill-rule="evenodd" clip-rule="evenodd" d="M4.95344 6.08481C3.6095 7.68411 2.80001 9.74753 2.80001 12C2.80001 17.081 6.91899 21.2 12 21.2C14.2525 21.2 16.3159 20.3905 17.9152 19.0466L4.95344 6.08481ZM6.08481 4.95344L19.0466 17.9152C20.3905 16.3159 21.2 14.2525 21.2 12C21.2 6.91899 17.081 2.80001 12 2.80001C9.74753 2.80001 7.68411 3.6095 6.08481 4.95344ZM1.20001 12C1.20001 6.03534 6.03534 1.20001 12 1.20001C17.9647 1.20001 22.8 6.03534 22.8 12C22.8 17.9647 17.9647 22.8 12 22.8C6.03534 22.8 1.20001 17.9647 1.20001 12Z" fill="black"/>
</svg>
